# Rhino

o element_place_2
v 628.89654541015625 -144.24284362792969 74
v 628.89654541015625 -144.24284362792969 22
v 729.95526123046875 -130.41790771484375 74
v 729.95526123046875 -130.41790771484375 22
v 662.582763671875 -139.63453674316406 74
v 696.26904296875 -135.02622985839844 74
v 696.26904296875 -135.02622985839844 22
v 662.582763671875 -139.63453674316406 22
v 628.89654541015625 -144.24284362792969 48
v 729.95526123046875 -130.41790771484375 48
v 729.95526123046875 -130.41790771484375 74
v 729.95526123046875 -130.41790771484375 22
v 737.9520263671875 -188.87345886230469 74
v 737.9520263671875 -188.87345886230469 22
v 733.95367431640625 -159.64569091796875 74
v 733.95367431640625 -159.64569091796875 22
v 729.95526123046875 -130.41790771484375 48
v 737.9520263671875 -188.87345886230469 48
v 737.9520263671875 -188.87345886230469 74
v 737.9520263671875 -188.87345886230469 22
v 636.893310546875 -202.69839477539062 74
v 636.893310546875 -202.69839477539062 22
v 704.26580810546875 -193.48178100585937 74
v 670.57952880859375 -198.090087890625 74
v 670.57952880859375 -198.090087890625 22
v 704.26580810546875 -193.48178100585937 22
v 737.9520263671875 -188.87345886230469 48
v 636.893310546875 -202.69839477539062 48
v 636.893310546875 -202.69839477539062 74
v 636.893310546875 -202.69839477539062 22
v 628.89654541015625 -144.24284362792969 74
v 628.89654541015625 -144.24284362792969 22
v 632.8948974609375 -173.47062683105469 74
v 632.8948974609375 -173.47062683105469 22
v 628.89654541015625 -144.24284362792969 48
v 636.893310546875 -202.69839477539062 48
v 628.89654541015625 -144.24284362792969 74
v 729.95526123046875 -130.41790771484375 74
v 636.893310546875 -202.69839477539062 74
v 737.9520263671875 -188.87345886230469 74
v 696.26904296875 -135.02622985839844 74
v 662.582763671875 -139.63453674316406 74
v 733.95367431640625 -159.64569091796875 74
v 670.57952880859375 -198.090087890625 74
v 704.26580810546875 -193.48178100585937 74
v 632.8948974609375 -173.47062683105469 74
v 628.89654541015625 -144.24284362792969 22
v 636.893310546875 -202.69839477539062 22
v 729.95526123046875 -130.41790771484375 22
v 737.9520263671875 -188.87345886230469 22
v 662.582763671875 -139.63453674316406 22
v 696.26904296875 -135.02622985839844 22
v 733.95367431640625 -159.64569091796875 22
v 704.26580810546875 -193.48178100585937 22
v 670.57952880859375 -198.090087890625 22
v 632.8948974609375 -173.47062683105469 22
vt 0.54411762952804565 0
vt 0.28921568393707275 0
vt 0.54411762952804565 0.49853515625
vt 0.28921568393707275 0.49853515625
vt 0.54411762952804565 0.1661783903837204
vt 0.54411762952804565 0.3323567807674408
vt 0.28921568393707275 0.3323567807674408
vt 0.28921568393707275 0.1661783903837204
vt 0.4166666567325592 0
vt 0.4166666567325592 0.49853515625
vt 0.57843136787414551 0.5
vt 0.57843136787414551 0.7549019455909729
vt 0.86618220806121826 0.5
vt 0.86618220806121826 0.7549019455909729
vt 0.72230678796768188 0.5
vt 0.72230678796768188 0.7549019455909729
vt 0.57843136787414551 0.62745100259780884
vt 0.86618220806121826 0.62745100259780884
vt 0.25490197539329529 0
vt 0 0
vt 0.25490197539329529 0.49853515625
vt 0 0.49853515625
vt 0.25490197539329529 0.1661783903837204
vt 0.25490197539329529 0.3323567807674408
vt 0 0.3323567807674408
vt 0 0.1661783903837204
vt 0.12745098769664764 0
vt 0.12745098769664764 0.49853515625
vt 0.57843136787414551 0
vt 0.57843136787414551 0.25490197539329529
vt 0.86618220806121826 0
vt 0.86618220806121826 0.25490197539329529
vt 0.72230678796768188 0
vt 0.72230678796768188 0.25490197539329529
vt 0.86618220806121826 0.12745098769664764
vt 0.57843136787414551 0.12745098769664764
vt 0.28921568393707275 0.5
vt 0.28921568393707275 0.99853515625
vt 0.57696652412414551 0.5
vt 0.57696652412414551 0.99853515625
vt 0.28921568393707275 0.83235675096511841
vt 0.28921568393707275 0.66617840528488159
vt 0.43309110403060913 0.99853515625
vt 0.57696652412414551 0.66617840528488159
vt 0.57696652412414551 0.83235675096511841
vt 0.43309110403060913 0.5
vt 0.28775084018707275 0.5
vt 0 0.5
vt 0.28775084018707275 0.99853515625
vt 0 0.99853515625
vt 0.28775084018707275 0.66617840528488159
vt 0.28775084018707275 0.83235675096511841
vt 0.14387542009353638 0.99853515625
vt 0 0.83235675096511841
vt 0 0.66617840528488159
vt 0.14387542009353638 0.5
vn -0.13553859293460846 0.9907720685005188 0
vn -0.13553859293460846 0.9907720685005188 0
vn -0.13553859293460846 0.9907720685005188 0
vn -0.13553859293460846 0.9907720685005188 0
vn -0.13553859293460846 0.9907720685005188 0
vn -0.13553859293460846 0.9907720685005188 0
vn -0.13553859293460846 0.9907720685005188 0
vn -0.13553859293460846 0.9907720685005188 0
vn -0.13553859293460846 0.9907720685005188 0
vn -0.13553859293460846 0.9907720685005188 0
vn 0.9907720685005188 0.13553859293460846 0
vn 0.9907720685005188 0.13553859293460846 0
vn 0.9907720685005188 0.13553859293460846 0
vn 0.9907720685005188 0.13553859293460846 0
vn 0.9907720685005188 0.13553859293460846 0
vn 0.9907720685005188 0.13553859293460846 0
vn 0.9907720685005188 0.13553859293460846 0
vn 0.9907720685005188 0.13553859293460846 0
vn 0.13553859293460846 -0.9907720685005188 0
vn 0.13553859293460846 -0.9907720685005188 0
vn 0.13553859293460846 -0.9907720685005188 0
vn 0.13553859293460846 -0.9907720685005188 0
vn 0.13553859293460846 -0.9907720685005188 0
vn 0.13553859293460846 -0.9907720685005188 0
vn 0.13553859293460846 -0.9907720685005188 0
vn 0.13553859293460846 -0.9907720685005188 0
vn 0.13553859293460846 -0.9907720685005188 0
vn 0.13553859293460846 -0.9907720685005188 0
vn -0.9907720685005188 -0.13553859293460846 0
vn -0.9907720685005188 -0.13553859293460846 0
vn -0.9907720685005188 -0.13553859293460846 0
vn -0.9907720685005188 -0.13553859293460846 0
vn -0.9907720685005188 -0.13553859293460846 0
vn -0.9907720685005188 -0.13553859293460846 0
vn -0.9907720685005188 -0.13553859293460846 0
vn -0.9907720685005188 -0.13553859293460846 0
vn 0 0 1
vn 0 0 1
vn 0 0 1
vn 0 0 1
vn 0 0 1
vn 0 0 1
vn 0 0 1
vn 0 0 1
vn 0 0 1
vn 0 0 1
vn 0 0 -1
vn 0 0 -1
vn 0 0 -1
vn 0 0 -1
vn 0 0 -1
vn 0 0 -1
vn 0 0 -1
vn 0 0 -1
vn 0 0 -1
vn 0 0 -1
f 9/9/9 1/1/1 5/5/5
f 2/2/2 9/9/9 8/8/8
f 5/5/5 8/8/8 9/9/9
f 5/5/5 6/6/6 7/7/7 8/8/8
f 10/10/10 6/6/6 3/3/3
f 4/4/4 7/7/7 10/10/10
f 6/6/6 10/10/10 7/7/7
f 17/17/17 18/18/18 14/14/14 16/16/16
f 17/17/17 16/16/16 12/12/12
f 15/15/15 17/17/17 11/11/11
f 18/18/18 15/15/15 13/13/13
f 15/15/15 18/18/18 17/17/17
f 27/27/27 19/19/19 23/23/23
f 20/20/20 27/27/27 26/26/26
f 23/23/23 26/26/26 27/27/27
f 23/23/23 24/24/24 25/25/25 26/26/26
f 28/28/28 24/24/24 21/21/21
f 22/22/22 25/25/25 28/28/28
f 24/24/24 28/28/28 25/25/25
f 36/36/36 29/29/29 33/33/33
f 36/36/36 34/34/34 30/30/30
f 35/35/35 36/36/36 33/33/33
f 36/36/36 35/35/35 34/34/34
f 35/35/35 32/32/32 34/34/34
f 31/31/31 35/35/35 33/33/33
f 42/42/42 37/37/37 46/46/46
f 41/41/41 42/42/42 44/44/44 45/45/45
f 41/41/41 43/43/43 38/38/38
f 46/46/46 44/44/44 42/42/42
f 40/40/40 43/43/43 45/45/45
f 45/45/45 43/43/43 41/41/41
f 39/39/39 44/44/44 46/46/46
f 56/56/56 47/47/47 51/51/51
f 48/48/48 56/56/56 55/55/55
f 51/51/51 55/55/55 56/56/56
f 51/51/51 52/52/52 54/54/54 55/55/55
f 53/53/53 52/52/52 49/49/49
f 50/50/50 54/54/54 53/53/53
f 52/52/52 53/53/53 54/54/54
