# Rhino

o element_place_11
v 744.74481201171875 242.51327514648437 126
v 744.74481201171875 242.51327514648437 74
v 642.85211181640625 237.83596801757812 126
v 642.85211181640625 237.83596801757812 74
v 693.7984619140625 240.17462158203125 126
v 693.7984619140625 240.17462158203125 74
v 744.74481201171875 242.51327514648437 100
v 642.85211181640625 237.83596801757812 100
v 642.85211181640625 237.83596801757812 126
v 642.85211181640625 237.83596801757812 74
v 640.1466064453125 296.77389526367188 126
v 640.1466064453125 296.77389526367188 74
v 641.4993896484375 267.304931640625 126
v 641.4993896484375 267.304931640625 74
v 642.85211181640625 237.83596801757812 100
v 640.1466064453125 296.77389526367188 100
v 640.1466064453125 296.77389526367188 126
v 640.1466064453125 296.77389526367188 74
v 742.039306640625 301.45120239257812 126
v 742.039306640625 301.45120239257812 74
v 691.09295654296875 299.112548828125 126
v 691.09295654296875 299.112548828125 74
v 640.1466064453125 296.77389526367188 100
v 742.039306640625 301.45120239257812 100
v 742.039306640625 301.45120239257812 126
v 742.039306640625 301.45120239257812 74
v 744.74481201171875 242.51327514648437 126
v 744.74481201171875 242.51327514648437 74
v 743.39208984375 271.98223876953125 126
v 743.39208984375 271.98223876953125 74
v 744.74481201171875 242.51327514648437 100
v 742.039306640625 301.45120239257812 100
v 744.74481201171875 242.51327514648437 126
v 642.85211181640625 237.83596801757812 126
v 742.039306640625 301.45120239257812 126
v 640.1466064453125 296.77389526367188 126
v 693.7984619140625 240.17462158203125 126
v 641.4993896484375 267.304931640625 126
v 691.09295654296875 299.112548828125 126
v 743.39208984375 271.98223876953125 126
v 744.74481201171875 242.51327514648437 74
v 742.039306640625 301.45120239257812 74
v 642.85211181640625 237.83596801757812 74
v 640.1466064453125 296.77389526367188 74
v 693.7984619140625 240.17462158203125 74
v 641.4993896484375 267.304931640625 74
v 691.09295654296875 299.112548828125 74
v 743.39208984375 271.98223876953125 74
vt 0.54411762952804565 0
vt 0.28921568393707275 0
vt 0.54411762952804565 0.49853515625
vt 0.28921568393707275 0.49853515625
vt 0.54411762952804565 0.249267578125
vt 0.28921568393707275 0.249267578125
vt 0.4166666567325592 0
vt 0.4166666567325592 0.49853515625
vt 0.57843136787414551 0.5
vt 0.57843136787414551 0.7549019455909729
vt 0.86618220806121826 0.5
vt 0.86618220806121826 0.7549019455909729
vt 0.72230678796768188 0.5
vt 0.72230678796768188 0.7549019455909729
vt 0.57843136787414551 0.62745100259780884
vt 0.86618220806121826 0.62745100259780884
vt 0.25490197539329529 0
vt 0 0
vt 0.25490197539329529 0.49853515625
vt 0 0.49853515625
vt 0.25490197539329529 0.249267578125
vt 0 0.249267578125
vt 0.12745098769664764 0
vt 0.12745098769664764 0.49853515625
vt 0.57843136787414551 0
vt 0.57843136787414551 0.25490197539329529
vt 0.86618220806121826 0
vt 0.86618220806121826 0.25490197539329529
vt 0.72230678796768188 0
vt 0.72230678796768188 0.25490197539329529
vt 0.86618220806121826 0.12745098769664764
vt 0.57843136787414551 0.12745098769664764
vt 0.28921568393707275 0.5
vt 0.28921568393707275 0.99853515625
vt 0.57696652412414551 0.5
vt 0.57696652412414551 0.99853515625
vt 0.28921568393707275 0.749267578125
vt 0.43309110403060913 0.99853515625
vt 0.57696652412414551 0.749267578125
vt 0.43309110403060913 0.5
vt 0.28775084018707275 0.5
vt 0 0.5
vt 0.28775084018707275 0.99853515625
vt 0 0.99853515625
vt 0.28775084018707275 0.749267578125
vt 0.14387542009353638 0.99853515625
vt 0 0.749267578125
vt 0.14387542009353638 0.5
vn 0.045855879783630371 -0.99894803762435913 0
vn 0.045855879783630371 -0.99894803762435913 0
vn 0.045855879783630371 -0.99894803762435913 0
vn 0.045855879783630371 -0.99894803762435913 0
vn 0.045855879783630371 -0.99894803762435913 0
vn 0.045855879783630371 -0.99894803762435913 0
vn 0.045855879783630371 -0.99894803762435913 0
vn 0.045855879783630371 -0.99894803762435913 0
vn -0.99894803762435913 -0.045855879783630371 0
vn -0.99894803762435913 -0.045855879783630371 0
vn -0.99894803762435913 -0.045855879783630371 0
vn -0.99894803762435913 -0.045855879783630371 0
vn -0.99894803762435913 -0.045855879783630371 0
vn -0.99894803762435913 -0.045855879783630371 0
vn -0.99894803762435913 -0.045855879783630371 0
vn -0.99894803762435913 -0.045855879783630371 0
vn -0.045855879783630371 0.99894803762435913 0
vn -0.045855879783630371 0.99894803762435913 0
vn -0.045855879783630371 0.99894803762435913 0
vn -0.045855879783630371 0.99894803762435913 0
vn -0.045855879783630371 0.99894803762435913 0
vn -0.045855879783630371 0.99894803762435913 0
vn -0.045855879783630371 0.99894803762435913 0
vn -0.045855879783630371 0.99894803762435913 0
vn 0.99894803762435913 0.045855879783630371 0
vn 0.99894803762435913 0.045855879783630371 0
vn 0.99894803762435913 0.045855879783630371 0
vn 0.99894803762435913 0.045855879783630371 0
vn 0.99894803762435913 0.045855879783630371 0
vn 0.99894803762435913 0.045855879783630371 0
vn 0.99894803762435913 0.045855879783630371 0
vn 0.99894803762435913 0.045855879783630371 0
vn 0 0 1
vn 0 0 1
vn 0 0 1
vn 0 0 1
vn 0 0 1
vn 0 0 1
vn 0 0 1
vn 0 0 1
vn 0 0 -1
vn 0 0 -1
vn 0 0 -1
vn 0 0 -1
vn 0 0 -1
vn 0 0 -1
vn 0 0 -1
vn 0 0 -1
f 7/7/7 1/1/1 5/5/5
f 7/7/7 6/6/6 2/2/2
f 8/8/8 7/7/7 5/5/5 3/3/3
f 7/7/7 8/8/8 4/4/4 6/6/6
f 15/15/15 9/9/9 13/13/13
f 15/15/15 14/14/14 10/10/10
f 16/16/16 15/15/15 13/13/13
f 15/15/15 16/16/16 14/14/14
f 16/16/16 12/12/12 14/14/14
f 11/11/11 16/16/16 13/13/13
f 23/23/23 17/17/17 21/21/21
f 23/23/23 22/22/22 18/18/18
f 24/24/24 23/23/23 21/21/21 19/19/19
f 23/23/23 24/24/24 20/20/20 22/22/22
f 32/32/32 31/31/31 28/28/28 30/30/30
f 32/32/32 30/30/30 26/26/26
f 29/29/29 32/32/32 25/25/25
f 31/31/31 29/29/29 27/27/27
f 29/29/29 31/31/31 32/32/32
f 40/40/40 38/38/38 37/37/37
f 37/37/37 38/38/38 34/34/34
f 40/40/40 37/37/37 33/33/33
f 39/39/39 40/40/40 35/35/35
f 39/39/39 36/36/36 38/38/38
f 40/40/40 39/39/39 38/38/38
f 48/48/48 41/41/41 45/45/45
f 48/48/48 47/47/47 42/42/42
f 46/46/46 48/48/48 45/45/45
f 48/48/48 46/46/46 47/47/47
f 46/46/46 44/44/44 47/47/47
f 43/43/43 46/46/46 45/45/45
