# Rhino

o element_place_9
v 718.2222900390625 -80.227035522460938 126
v 718.2222900390625 -80.227035522460938 74
v 716.34259033203125 21.755645751953125 126
v 716.34259033203125 21.755645751953125 74
v 717.595703125 -46.232807159423828 126
v 716.96917724609375 -12.238580703735352 126
v 716.96917724609375 -12.238580703735352 74
v 717.595703125 -46.232807159423828 74
v 718.2222900390625 -80.227035522460938 100
v 716.34259033203125 21.755645751953125 100
v 716.34259033203125 21.755645751953125 126
v 716.34259033203125 21.755645751953125 74
v 775.33258056640625 22.842912673950195 126
v 775.33258056640625 22.842912673950195 74
v 745.83758544921875 22.299278259277344 126
v 745.83758544921875 22.299278259277344 74
v 716.34259033203125 21.755645751953125 100
v 775.33258056640625 22.842912673950195 100
v 775.33258056640625 22.842912673950195 126
v 775.33258056640625 22.842912673950195 74
v 777.2122802734375 -79.1397705078125 126
v 777.2122802734375 -79.1397705078125 74
v 775.9591064453125 -11.151314735412598 126
v 776.585693359375 -45.145542144775391 126
v 776.585693359375 -45.145542144775391 74
v 775.9591064453125 -11.151314735412598 74
v 775.33258056640625 22.842912673950195 100
v 777.2122802734375 -79.1397705078125 100
v 777.2122802734375 -79.1397705078125 126
v 777.2122802734375 -79.1397705078125 74
v 718.2222900390625 -80.227035522460938 126
v 718.2222900390625 -80.227035522460938 74
v 747.71728515625 -79.683403015136719 126
v 747.71728515625 -79.683403015136719 74
v 718.2222900390625 -80.227035522460938 100
v 777.2122802734375 -79.1397705078125 100
v 718.2222900390625 -80.227035522460938 126
v 716.34259033203125 21.755645751953125 126
v 777.2122802734375 -79.1397705078125 126
v 775.33258056640625 22.842912673950195 126
v 716.96917724609375 -12.238580703735352 126
v 717.595703125 -46.232807159423828 126
v 745.83758544921875 22.299278259277344 126
v 776.585693359375 -45.145542144775391 126
v 775.9591064453125 -11.151314735412598 126
v 747.71728515625 -79.683403015136719 126
v 718.2222900390625 -80.227035522460938 74
v 777.2122802734375 -79.1397705078125 74
v 716.34259033203125 21.755645751953125 74
v 775.33258056640625 22.842912673950195 74
v 717.595703125 -46.232807159423828 74
v 716.96917724609375 -12.238580703735352 74
v 745.83758544921875 22.299278259277344 74
v 775.9591064453125 -11.151314735412598 74
v 776.585693359375 -45.145542144775391 74
v 747.71728515625 -79.683403015136719 74
vt 0.54411762952804565 0
vt 0.28921568393707275 0
vt 0.54411762952804565 0.49853515625
vt 0.28921568393707275 0.49853515625
vt 0.54411762952804565 0.1661783903837204
vt 0.54411762952804565 0.3323567807674408
vt 0.28921568393707275 0.3323567807674408
vt 0.28921568393707275 0.1661783903837204
vt 0.4166666567325592 0
vt 0.4166666567325592 0.49853515625
vt 0.57843136787414551 0.5
vt 0.57843136787414551 0.7549019455909729
vt 0.86618220806121826 0.5
vt 0.86618220806121826 0.7549019455909729
vt 0.72230678796768188 0.5
vt 0.72230678796768188 0.7549019455909729
vt 0.57843136787414551 0.62745100259780884
vt 0.86618220806121826 0.62745100259780884
vt 0.25490197539329529 0
vt 0 0
vt 0.25490197539329529 0.49853515625
vt 0 0.49853515625
vt 0.25490197539329529 0.1661783903837204
vt 0.25490197539329529 0.3323567807674408
vt 0 0.3323567807674408
vt 0 0.1661783903837204
vt 0.12745098769664764 0
vt 0.12745098769664764 0.49853515625
vt 0.57843136787414551 0
vt 0.57843136787414551 0.25490197539329529
vt 0.86618220806121826 0
vt 0.86618220806121826 0.25490197539329529
vt 0.72230678796768188 0
vt 0.72230678796768188 0.25490197539329529
vt 0.86618220806121826 0.12745098769664764
vt 0.57843136787414551 0.12745098769664764
vt 0.28921568393707275 0.5
vt 0.28921568393707275 0.99853515625
vt 0.57696652412414551 0.5
vt 0.57696652412414551 0.99853515625
vt 0.28921568393707275 0.83235675096511841
vt 0.28921568393707275 0.66617840528488159
vt 0.43309110403060913 0.99853515625
vt 0.57696652412414551 0.66617840528488159
vt 0.57696652412414551 0.83235675096511841
vt 0.43309110403060913 0.5
vt 0.28775084018707275 0.5
vt 0 0.5
vt 0.28775084018707275 0.99853515625
vt 0 0.99853515625
vt 0.28775084018707275 0.66617840528488159
vt 0.28775084018707275 0.83235675096511841
vt 0.14387542009353638 0.99853515625
vt 0 0.83235675096511841
vt 0 0.66617840528488159
vt 0.14387542009353638 0.5
vn -0.99983018636703491 -0.018428239971399307 0
vn -0.99983018636703491 -0.018428239971399307 0
vn -0.99983018636703491 -0.018428239971399307 0
vn -0.99983018636703491 -0.018428239971399307 0
vn -0.99983018636703491 -0.018428239971399307 0
vn -0.99983018636703491 -0.018428239971399307 0
vn -0.99983018636703491 -0.018428239971399307 0
vn -0.99983018636703491 -0.018428239971399307 0
vn -0.99983018636703491 -0.018428239971399307 0
vn -0.99983018636703491 -0.018428239971399307 0
vn -0.018428239971399307 0.99983018636703491 0
vn -0.018428239971399307 0.99983018636703491 0
vn -0.018428239971399307 0.99983018636703491 0
vn -0.018428239971399307 0.99983018636703491 0
vn -0.018428239971399307 0.99983018636703491 0
vn -0.018428239971399307 0.99983018636703491 0
vn -0.018428239971399307 0.99983018636703491 0
vn -0.018428239971399307 0.99983018636703491 0
vn 0.99983018636703491 0.018428239971399307 0
vn 0.99983018636703491 0.018428239971399307 0
vn 0.99983018636703491 0.018428239971399307 0
vn 0.99983018636703491 0.018428239971399307 0
vn 0.99983018636703491 0.018428239971399307 0
vn 0.99983018636703491 0.018428239971399307 0
vn 0.99983018636703491 0.018428239971399307 0
vn 0.99983018636703491 0.018428239971399307 0
vn 0.99983018636703491 0.018428239971399307 0
vn 0.99983018636703491 0.018428239971399307 0
vn 0.018428239971399307 -0.99983018636703491 0
vn 0.018428239971399307 -0.99983018636703491 0
vn 0.018428239971399307 -0.99983018636703491 0
vn 0.018428239971399307 -0.99983018636703491 0
vn 0.018428239971399307 -0.99983018636703491 0
vn 0.018428239971399307 -0.99983018636703491 0
vn 0.018428239971399307 -0.99983018636703491 0
vn 0.018428239971399307 -0.99983018636703491 0
vn 0 0 1
vn 0 0 1
vn 0 0 1
vn 0 0 1
vn 0 0 1
vn 0 0 1
vn 0 0 1
vn 0 0 1
vn 0 0 1
vn 0 0 1
vn 0 0 -1
vn 0 0 -1
vn 0 0 -1
vn 0 0 -1
vn 0 0 -1
vn 0 0 -1
vn 0 0 -1
vn 0 0 -1
vn 0 0 -1
vn 0 0 -1
f 9/9/9 1/1/1 5/5/5
f 2/2/2 9/9/9 8/8/8
f 9/9/9 7/7/7 8/8/8
f 6/6/6 9/9/9 5/5/5
f 10/10/10 6/6/6 3/3/3
f 4/4/4 7/7/7 10/10/10
f 10/10/10 7/7/7 9/9/9
f 6/6/6 10/10/10 9/9/9
f 17/17/17 11/11/11 15/15/15
f 17/17/17 16/16/16 12/12/12
f 18/18/18 17/17/17 15/15/15
f 17/17/17 18/18/18 16/16/16
f 18/18/18 14/14/14 16/16/16
f 13/13/13 18/18/18 15/15/15
f 27/27/27 19/19/19 23/23/23
f 20/20/20 27/27/27 26/26/26
f 23/23/23 26/26/26 27/27/27
f 26/26/26 23/23/23 24/24/24 25/25/25
f 28/28/28 24/24/24 21/21/21
f 22/22/22 25/25/25 28/28/28
f 24/24/24 28/28/28 25/25/25
f 36/36/36 29/29/29 33/33/33
f 36/36/36 34/34/34 30/30/30
f 35/35/35 36/36/36 33/33/33
f 36/36/36 35/35/35 34/34/34
f 35/35/35 32/32/32 34/34/34
f 31/31/31 35/35/35 33/33/33
f 42/42/42 37/37/37 46/46/46
f 41/41/41 42/42/42 44/44/44 45/45/45
f 41/41/41 43/43/43 38/38/38
f 46/46/46 44/44/44 42/42/42
f 40/40/40 43/43/43 45/45/45
f 45/45/45 43/43/43 41/41/41
f 39/39/39 44/44/44 46/46/46
f 56/56/56 47/47/47 51/51/51
f 48/48/48 56/56/56 55/55/55
f 51/51/51 55/55/55 56/56/56
f 51/51/51 52/52/52 54/54/54 55/55/55
f 53/53/53 52/52/52 49/49/49
f 50/50/50 54/54/54 53/53/53
f 52/52/52 53/53/53 54/54/54
