# Rhino

o element_pick_5
v 554 -575.5 79
v 554 -575.5 131
v 656 -575.5 79
v 656 -575.5 131
v 605 -575.5 79
v 605 -575.5 131
v 554 -575.5 105
v 656 -575.5 105
v 656 -575.5 79
v 656 -575.5 131
v 656 -516.5 79
v 656 -516.5 131
v 656 -546 79
v 656 -546 131
v 656 -575.5 105
v 656 -516.5 105
v 656 -516.5 79
v 656 -516.5 131
v 554 -516.5 79
v 554 -516.5 131
v 605 -516.5 79
v 605 -516.5 131
v 656 -516.5 105
v 554 -516.5 105
v 554 -516.5 79
v 554 -516.5 131
v 554 -575.5 79
v 554 -575.5 131
v 554 -546 79
v 554 -546 131
v 554 -575.5 105
v 554 -516.5 105
v 554 -575.5 79
v 656 -575.5 79
v 554 -516.5 79
v 656 -516.5 79
v 605 -575.5 79
v 656 -546 79
v 605 -516.5 79
v 554 -546 79
v 554 -575.5 131
v 554 -516.5 131
v 656 -575.5 131
v 656 -516.5 131
v 605 -575.5 131
v 656 -546 131
v 605 -516.5 131
v 554 -546 131
vt 0.54411762952804565 0
vt 0.28921568393707275 0
vt 0.54411762952804565 0.49853515625
vt 0.28921568393707275 0.49853515625
vt 0.54411762952804565 0.249267578125
vt 0.28921568393707275 0.249267578125
vt 0.4166666567325592 0
vt 0.4166666567325592 0.49853515625
vt 0.57843136787414551 0.5
vt 0.57843136787414551 0.7549019455909729
vt 0.86618220806121826 0.5
vt 0.86618220806121826 0.7549019455909729
vt 0.72230678796768188 0.5
vt 0.72230678796768188 0.7549019455909729
vt 0.57843136787414551 0.62745100259780884
vt 0.86618220806121826 0.62745100259780884
vt 0.25490197539329529 0
vt 0 0
vt 0.25490197539329529 0.49853515625
vt 0 0.49853515625
vt 0.25490197539329529 0.249267578125
vt 0 0.249267578125
vt 0.12745098769664764 0
vt 0.12745098769664764 0.49853515625
vt 0.57843136787414551 0
vt 0.57843136787414551 0.25490197539329529
vt 0.86618220806121826 0
vt 0.86618220806121826 0.25490197539329529
vt 0.72230678796768188 0
vt 0.72230678796768188 0.25490197539329529
vt 0.86618220806121826 0.12745098769664764
vt 0.57843136787414551 0.12745098769664764
vt 0.28921568393707275 0.5
vt 0.28921568393707275 0.99853515625
vt 0.57696652412414551 0.5
vt 0.57696652412414551 0.99853515625
vt 0.28921568393707275 0.749267578125
vt 0.43309110403060913 0.99853515625
vt 0.57696652412414551 0.749267578125
vt 0.43309110403060913 0.5
vt 0.28775084018707275 0.5
vt 0 0.5
vt 0.28775084018707275 0.99853515625
vt 0 0.99853515625
vt 0.28775084018707275 0.749267578125
vt 0.14387542009353638 0.99853515625
vt 0 0.749267578125
vt 0.14387542009353638 0.5
vn 0 -1 0
vn 0 -1 0
vn 0 -1 0
vn 0 -1 0
vn 0 -1 0
vn 0 -1 0
vn 0 -1 0
vn 0 -1 0
vn 1 0 0
vn 1 0 0
vn 1 0 0
vn 1 0 0
vn 1 0 0
vn 1 0 0
vn 1 0 0
vn 1 0 0
vn 0 1 0
vn 0 1 0
vn 0 1 0
vn 0 1 0
vn 0 1 0
vn 0 1 0
vn 0 1 0
vn 0 1 0
vn -1 0 0
vn -1 0 0
vn -1 0 0
vn -1 0 0
vn -1 0 0
vn -1 0 0
vn -1 0 0
vn -1 0 0
vn 0 0 -1
vn 0 0 -1
vn 0 0 -1
vn 0 0 -1
vn 0 0 -1
vn 0 0 -1
vn 0 0 -1
vn 0 0 -1
vn 0 0 1
vn 0 0 1
vn 0 0 1
vn 0 0 1
vn 0 0 1
vn 0 0 1
vn 0 0 1
vn 0 0 1
f 7/7/7 1/1/1 5/5/5
f 7/7/7 6/6/6 2/2/2
f 8/8/8 7/7/7 5/5/5
f 7/7/7 8/8/8 6/6/6
f 8/8/8 4/4/4 6/6/6
f 3/3/3 8/8/8 5/5/5
f 15/15/15 9/9/9 13/13/13
f 15/15/15 14/14/14 10/10/10
f 16/16/16 15/15/15 13/13/13
f 15/15/15 16/16/16 14/14/14
f 16/16/16 12/12/12 14/14/14
f 11/11/11 16/16/16 13/13/13
f 23/23/23 17/17/17 21/21/21
f 23/23/23 22/22/22 18/18/18
f 24/24/24 23/23/23 21/21/21
f 23/23/23 24/24/24 22/22/22
f 24/24/24 20/20/20 22/22/22
f 19/19/19 24/24/24 21/21/21
f 32/32/32 25/25/25 29/29/29
f 32/32/32 30/30/30 26/26/26
f 31/31/31 32/32/32 29/29/29
f 32/32/32 31/31/31 30/30/30
f 31/31/31 28/28/28 30/30/30
f 27/27/27 31/31/31 29/29/29
f 37/37/37 33/33/33 40/40/40
f 37/37/37 38/38/38 34/34/34
f 39/39/39 37/37/37 40/40/40
f 37/37/37 39/39/39 38/38/38
f 39/39/39 36/36/36 38/38/38
f 35/35/35 39/39/39 40/40/40
f 48/48/48 41/41/41 45/45/45
f 48/48/48 47/47/47 42/42/42
f 46/46/46 48/48/48 45/45/45
f 48/48/48 46/46/46 47/47/47
f 46/46/46 44/44/44 47/47/47
f 43/43/43 46/46/46 45/45/45
