# Rhino

o element_place_8
v 626.2901611328125 -152.17269897460937 126
v 626.2901611328125 -152.17269897460937 74
v 724.38092041015625 -124.204833984375 126
v 724.38092041015625 -124.204833984375 74
v 675.33551025390625 -138.18876647949219 126
v 675.33551025390625 -138.18876647949219 74
v 626.2901611328125 -152.17269897460937 100
v 724.38092041015625 -124.204833984375 100
v 724.38092041015625 -124.204833984375 126
v 724.38092041015625 -124.204833984375 74
v 740.55841064453125 -180.94361877441406 126
v 740.55841064453125 -180.94361877441406 74
v 732.46966552734375 -152.57421875 126
v 732.46966552734375 -152.57421875 74
v 724.38092041015625 -124.204833984375 100
v 740.55841064453125 -180.94361877441406 100
v 740.55841064453125 -180.94361877441406 126
v 740.55841064453125 -180.94361877441406 74
v 642.4676513671875 -208.91146850585937 126
v 642.4676513671875 -208.91146850585937 74
v 691.51300048828125 -194.92755126953125 126
v 691.51300048828125 -194.92755126953125 74
v 740.55841064453125 -180.94361877441406 100
v 642.4676513671875 -208.91146850585937 100
v 642.4676513671875 -208.91146850585937 126
v 642.4676513671875 -208.91146850585937 74
v 634.37890625 -180.54208374023437 126
v 634.37890625 -180.54208374023437 74
v 626.2901611328125 -152.17269897460937 126
v 626.2901611328125 -152.17269897460937 74
v 626.2901611328125 -152.17269897460937 100
v 642.4676513671875 -208.91146850585937 100
v 626.2901611328125 -152.17269897460937 126
v 724.38092041015625 -124.204833984375 126
v 634.37890625 -180.54208374023437 126
v 732.46966552734375 -152.57421875 126
v 642.4676513671875 -208.91146850585937 126
v 740.55841064453125 -180.94361877441406 126
v 675.33551025390625 -138.18876647949219 126
v 691.51300048828125 -194.92755126953125 126
v 626.2901611328125 -152.17269897460937 74
v 634.37890625 -180.54208374023437 74
v 642.4676513671875 -208.91146850585937 74
v 724.38092041015625 -124.204833984375 74
v 732.46966552734375 -152.57421875 74
v 740.55841064453125 -180.94361877441406 74
v 675.33551025390625 -138.18876647949219 74
v 691.51300048828125 -194.92755126953125 74
vt 0.54411762952804565 0
vt 0.28921568393707275 0
vt 0.54411762952804565 0.49853515625
vt 0.28921568393707275 0.49853515625
vt 0.54411762952804565 0.249267578125
vt 0.28921568393707275 0.249267578125
vt 0.4166666567325592 0
vt 0.4166666567325592 0.49853515625
vt 0.57843136787414551 0.5
vt 0.57843136787414551 0.7549019455909729
vt 0.86618220806121826 0.5
vt 0.86618220806121826 0.7549019455909729
vt 0.72230678796768188 0.5
vt 0.72230678796768188 0.7549019455909729
vt 0.57843136787414551 0.62745100259780884
vt 0.86618220806121826 0.62745100259780884
vt 0.25490197539329529 0
vt 0 0
vt 0.25490197539329529 0.49853515625
vt 0 0.49853515625
vt 0.25490197539329529 0.249267578125
vt 0 0.249267578125
vt 0.12745098769664764 0
vt 0.12745098769664764 0.49853515625
vt 0.57843136787414551 0
vt 0.57843136787414551 0.25490197539329529
vt 0.72230678796768188 0
vt 0.72230678796768188 0.25490197539329529
vt 0.86618220806121826 0
vt 0.86618220806121826 0.25490197539329529
vt 0.86618220806121826 0.12745098769664764
vt 0.57843136787414551 0.12745098769664764
vt 0.28921568393707275 0.5
vt 0.28921568393707275 0.99853515625
vt 0.43309110403060913 0.5
vt 0.43309110403060913 0.99853515625
vt 0.57696652412414551 0.5
vt 0.57696652412414551 0.99853515625
vt 0.28921568393707275 0.749267578125
vt 0.57696652412414551 0.749267578125
vt 0.28775084018707275 0.5
vt 0.14387542009353638 0.5
vt 0 0.5
vt 0.28775084018707275 0.99853515625
vt 0.14387542009353638 0.99853515625
vt 0 0.99853515625
vt 0.28775084018707275 0.749267578125
vt 0 0.749267578125
vn -0.27419471740722656 0.96167421340942383 0
vn -0.27419471740722656 0.96167421340942383 0
vn -0.27419471740722656 0.96167421340942383 0
vn -0.27419471740722656 0.96167421340942383 0
vn -0.27419471740722656 0.96167421340942383 0
vn -0.27419471740722656 0.96167421340942383 0
vn -0.27419471740722656 0.96167421340942383 0
vn -0.27419471740722656 0.96167421340942383 0
vn 0.96167421340942383 0.27419471740722656 0
vn 0.96167421340942383 0.27419471740722656 0
vn 0.96167421340942383 0.27419471740722656 0
vn 0.96167421340942383 0.27419471740722656 0
vn 0.96167421340942383 0.27419471740722656 0
vn 0.96167421340942383 0.27419471740722656 0
vn 0.96167421340942383 0.27419471740722656 0
vn 0.96167421340942383 0.27419471740722656 0
vn 0.27419471740722656 -0.96167421340942383 0
vn 0.27419471740722656 -0.96167421340942383 0
vn 0.27419471740722656 -0.96167421340942383 0
vn 0.27419471740722656 -0.96167421340942383 0
vn 0.27419471740722656 -0.96167421340942383 0
vn 0.27419471740722656 -0.96167421340942383 0
vn 0.27419471740722656 -0.96167421340942383 0
vn 0.27419471740722656 -0.96167421340942383 0
vn -0.96167421340942383 -0.27419471740722656 0
vn -0.96167421340942383 -0.27419471740722656 0
vn -0.96167421340942383 -0.27419471740722656 0
vn -0.96167421340942383 -0.27419471740722656 0
vn -0.96167421340942383 -0.27419471740722656 0
vn -0.96167421340942383 -0.27419471740722656 0
vn -0.96167421340942383 -0.27419471740722656 0
vn -0.96167421340942383 -0.27419471740722656 0
vn 0 0 1
vn 0 0 1
vn 0 0 1
vn 0 0 1
vn 0 0 1
vn 0 0 1
vn 0 0 1
vn 0 0 1
vn 0 0 -1
vn 0 0 -1
vn 0 0 -1
vn 0 0 -1
vn 0 0 -1
vn 0 0 -1
vn 0 0 -1
vn 0 0 -1
f 7/7/7 8/8/8 6/6/6 2/2/2
f 5/5/5 7/7/7 1/1/1
f 8/8/8 5/5/5 3/3/3
f 8/8/8 4/4/4 6/6/6
f 5/5/5 8/8/8 7/7/7
f 15/15/15 9/9/9 13/13/13
f 15/15/15 14/14/14 10/10/10
f 14/14/14 15/15/15 13/13/13
f 13/13/13 16/16/16 14/14/14
f 16/16/16 12/12/12 14/14/14
f 11/11/11 16/16/16 13/13/13
f 23/23/23 24/24/24 22/22/22 18/18/18
f 21/21/21 23/23/23 17/17/17
f 24/24/24 21/21/21 19/19/19
f 24/24/24 20/20/20 22/22/22
f 21/21/21 24/24/24 23/23/23
f 32/32/32 25/25/25 27/27/27
f 32/32/32 28/28/28 26/26/26
f 28/28/28 32/32/32 27/27/27
f 27/27/27 31/31/31 28/28/28
f 31/31/31 30/30/30 28/28/28
f 29/29/29 31/31/31 27/27/27
f 39/39/39 33/33/33 35/35/35
f 39/39/39 36/36/36 34/34/34
f 36/36/36 39/39/39 35/35/35
f 35/35/35 40/40/40 36/36/36
f 40/40/40 38/38/38 36/36/36
f 37/37/37 40/40/40 35/35/35
f 45/45/45 48/48/48 42/42/42
f 42/42/42 48/48/48 43/43/43
f 47/47/47 42/42/42 41/41/41
f 45/45/45 47/47/47 44/44/44
f 45/45/45 46/46/46 48/48/48
f 47/47/47 45/45/45 42/42/42
