# Rhino

o support_place_table
v 362.53579711914062 -331 -3
v 362.53579711914062 404.788330078125 -3
v 1042.1070556640625 -331 -3
v 1042.1070556640625 404.788330078125 -3
v 459.617431640625 -331 -3
v 556.69903564453125 -331 -3
v 653.7806396484375 -331 -3
v 750.86224365234375 -331 -3
v 847.94384765625 -331 -3
v 945.02545166015625 -331 -3
v 702.32147216796875 36.894168853759766 -3
v 702.32147216796875 -147.05291748046875 -3
v 532.42864990234375 36.894168853759766 -3
v 532.42864990234375 -147.05291748046875 -3
v 872.2142333984375 36.894168853759766 -3
v 872.2142333984375 -147.05291748046875 -3
v 362.53579711914062 299.67572021484375 -3
v 362.53579711914062 194.56309509277344 -3
v 362.53579711914062 89.450477600097656 -3
v 362.53579711914062 -15.662139892578125 -3
v 362.53579711914062 -120.77475738525391 -3
v 362.53579711914062 -225.88737487792969 -3
v 702.32147216796875 220.84126281738281 -3
v 532.42864990234375 220.84126281738281 -3
v 945.02545166015625 404.788330078125 -3
v 847.94384765625 404.788330078125 -3
v 750.86224365234375 404.788330078125 -3
v 653.7806396484375 404.788330078125 -3
v 556.69903564453125 404.788330078125 -3
v 459.617431640625 404.788330078125 -3
v 872.2142333984375 220.84126281738281 -3
v 1042.1070556640625 -225.88737487792969 -3
v 1042.1070556640625 -120.77475738525391 -3
v 1042.1070556640625 -15.662139892578125 -3
v 1042.1070556640625 89.450477600097656 -3
v 1042.1070556640625 194.56309509277344 -3
v 1042.1070556640625 299.67572021484375 -3
v 362.53579711914062 -331 22
v 362.53579711914062 404.788330078125 22
v 1042.1070556640625 -331 22
v 1042.1070556640625 404.788330078125 22
v 459.617431640625 -331 22
v 556.69903564453125 -331 22
v 653.7806396484375 -331 22
v 750.86224365234375 -331 22
v 847.94384765625 -331 22
v 945.02545166015625 -331 22
v 702.32147216796875 36.894168853759766 22
v 702.32147216796875 -147.05291748046875 22
v 532.42864990234375 36.894168853759766 22
v 532.42864990234375 -147.05291748046875 22
v 872.2142333984375 36.894168853759766 22
v 872.2142333984375 -147.05291748046875 22
v 362.53579711914062 299.67572021484375 22
v 362.53579711914062 194.56309509277344 22
v 362.53579711914062 89.450477600097656 22
v 362.53579711914062 -15.662139892578125 22
v 362.53579711914062 -120.77475738525391 22
v 362.53579711914062 -225.88737487792969 22
v 702.32147216796875 220.84126281738281 22
v 532.42864990234375 220.84126281738281 22
v 945.02545166015625 404.788330078125 22
v 847.94384765625 404.788330078125 22
v 750.86224365234375 404.788330078125 22
v 653.7806396484375 404.788330078125 22
v 556.69903564453125 404.788330078125 22
v 459.617431640625 404.788330078125 22
v 872.2142333984375 220.84126281738281 22
v 1042.1070556640625 -225.88737487792969 22
v 1042.1070556640625 -120.77475738525391 22
v 1042.1070556640625 -15.662139892578125 22
v 1042.1070556640625 89.450477600097656 22
v 1042.1070556640625 194.56309509277344 22
v 1042.1070556640625 299.67572021484375 22
v 1042.1070556640625 -331 22
v 1042.1070556640625 -331 -3
v 362.53579711914062 -331 22
v 362.53579711914062 -331 -3
v 459.617431640625 -331 -3
v 556.69903564453125 -331 -3
v 653.7806396484375 -331 -3
v 750.86224365234375 -331 -3
v 847.94384765625 -331 -3
v 945.02545166015625 -331 -3
v 945.02545166015625 -331 22
v 847.94384765625 -331 22
v 750.86224365234375 -331 22
v 653.7806396484375 -331 22
v 556.69903564453125 -331 22
v 459.617431640625 -331 22
v 1042.1070556640625 404.788330078125 22
v 1042.1070556640625 404.788330078125 -3
v 1042.1070556640625 -331 22
v 1042.1070556640625 -331 -3
v 1042.1070556640625 -225.88737487792969 -3
v 1042.1070556640625 -120.77475738525391 -3
v 1042.1070556640625 -15.662139892578125 -3
v 1042.1070556640625 89.450477600097656 -3
v 1042.1070556640625 194.56309509277344 -3
v 1042.1070556640625 299.67572021484375 -3
v 1042.1070556640625 299.67572021484375 22
v 1042.1070556640625 194.56309509277344 22
v 1042.1070556640625 89.450477600097656 22
v 1042.1070556640625 -15.662139892578125 22
v 1042.1070556640625 -120.77475738525391 22
v 1042.1070556640625 -225.88737487792969 22
v 362.53579711914062 404.788330078125 22
v 362.53579711914062 404.788330078125 -3
v 1042.1070556640625 404.788330078125 22
v 1042.1070556640625 404.788330078125 -3
v 945.02545166015625 404.788330078125 -3
v 847.94384765625 404.788330078125 -3
v 750.86224365234375 404.788330078125 -3
v 653.7806396484375 404.788330078125 -3
v 556.69903564453125 404.788330078125 -3
v 459.617431640625 404.788330078125 -3
v 459.617431640625 404.788330078125 22
v 556.69903564453125 404.788330078125 22
v 653.7806396484375 404.788330078125 22
v 750.86224365234375 404.788330078125 22
v 847.94384765625 404.788330078125 22
v 945.02545166015625 404.788330078125 22
v 362.53579711914062 -331 22
v 362.53579711914062 -331 -3
v 362.53579711914062 404.788330078125 22
v 362.53579711914062 404.788330078125 -3
v 362.53579711914062 299.67572021484375 -3
v 362.53579711914062 194.56309509277344 -3
v 362.53579711914062 89.450477600097656 -3
v 362.53579711914062 -15.662139892578125 -3
v 362.53579711914062 -120.77475738525391 -3
v 362.53579711914062 -225.88737487792969 -3
v 362.53579711914062 -225.88737487792969 22
v 362.53579711914062 -120.77475738525391 22
v 362.53579711914062 -15.662139892578125 22
v 362.53579711914062 89.450477600097656 22
v 362.53579711914062 194.56309509277344 22
v 362.53579711914062 299.67572021484375 22
vt 0.61347311735153198 0.5
vt 0.073575802147388458 0.5
vt 0.61347311735153198 0.99853515625
vt 0.073575802147388458 0.99853515625
vt 0.61347311735153198 0.57121932506561279
vt 0.61347311735153198 0.64243865013122559
vt 0.61347311735153198 0.7136579155921936
vt 0.61347311735153198 0.7848772406578064
vt 0.61347311735153198 0.85609656572341919
vt 0.61347311735153198 0.92731583118438721
vt 0.34352445602416992 0.749267578125
vt 0.47849878668785095 0.749267578125
vt 0.34352445602416992 0.6246337890625
vt 0.47849878668785095 0.6246337890625
vt 0.34352445602416992 0.8739013671875
vt 0.47849878668785095 0.8739013671875
vt 0.15070398151874542 0.5
vt 0.22783216834068298 0.5
vt 0.30496034026145935 0.5
vt 0.38208854198455811 0.5
vt 0.45921674370765686 0.5
vt 0.53634494543075562 0.5
vt 0.20855012536048889 0.749267578125
vt 0.20855012536048889 0.6246337890625
vt 0.073575802147388458 0.92731583118438721
vt 0.073575802147388458 0.85609656572341919
vt 0.073575802147388458 0.7848772406578064
vt 0.073575802147388458 0.7136579155921936
vt 0.073575802147388458 0.64243865013122559
vt 0.073575802147388458 0.57121932506561279
vt 0.20855012536048889 0.8739013671875
vt 0.53634494543075562 0.99853515625
vt 0.45921674370765686 0.99853515625
vt 0.38208854198455811 0.99853515625
vt 0.30496034026145935 0.99853515625
vt 0.22783216834068298 0.99853515625
vt 0.15070398151874542 0.99853515625
vt 0.61347311735153198 0
vt 0.073575802147388458 0
vt 0.61347311735153198 0.49853515625
vt 0.073575802147388458 0.49853515625
vt 0.61347311735153198 0.071219310164451599
vt 0.61347311735153198 0.1424386203289032
vt 0.61347311735153198 0.2136579304933548
vt 0.61347311735153198 0.2848772406578064
vt 0.61347311735153198 0.3560965359210968
vt 0.61347311735153198 0.42731586098670959
vt 0.34352445602416992 0.249267578125
vt 0.47849878668785095 0.249267578125
vt 0.34352445602416992 0.1246337890625
vt 0.47849878668785095 0.1246337890625
vt 0.34352445602416992 0.3739013671875
vt 0.47849878668785095 0.3739013671875
vt 0.15070398151874542 0
vt 0.22783216834068298 0
vt 0.30496034026145935 0
vt 0.38208854198455811 0
vt 0.45921674370765686 0
vt 0.53634494543075562 0
vt 0.20855012536048889 0.249267578125
vt 0.20855012536048889 0.1246337890625
vt 0.073575802147388458 0.42731586098670959
vt 0.073575802147388458 0.3560965359210968
vt 0.073575802147388458 0.2848772406578064
vt 0.073575802147388458 0.2136579304933548
vt 0.073575802147388458 0.1424386203289032
vt 0.073575802147388458 0.071219310164451599
vt 0.20855012536048889 0.3739013671875
vt 0.53634494543075562 0.49853515625
vt 0.45921674370765686 0.49853515625
vt 0.38208854198455811 0.49853515625
vt 0.30496034026145935 0.49853515625
vt 0.22783216834068298 0.49853515625
vt 0.15070398151874542 0.49853515625
vt 0.035323057323694229 0
vt 0.018393950536847115 0
vt 0.035323057323694229 0.5
vt 0.018393950536847115 0.5
vt 0.018393950536847115 0.4285714328289032
vt 0.018393950536847115 0.3571428656578064
vt 0.018393950536847115 0.28571429848670959
vt 0.018393950536847115 0.2142857164144516
vt 0.018393950536847115 0.1428571492433548
vt 0.018393950536847115 0.071428574621677399
vt 0.035323057323694229 0.071428574621677399
vt 0.035323057323694229 0.1428571492433548
vt 0.035323057323694229 0.2142857164144516
vt 0.035323057323694229 0.28571429848670959
vt 0.035323057323694229 0.3571428656578064
vt 0.035323057323694229 0.4285714328289032
vt 0.072110958397388458 0
vt 0.055181849747896194 0
vt 0.072110958397388458 0.54136216640472412
vt 0.055181849747896194 0.54136216640472412
vt 0.055181849747896194 0.46402472257614136
vt 0.055181849747896194 0.38668727874755859
vt 0.055181849747896194 0.30934983491897583
vt 0.055181849747896194 0.23201236128807068
vt 0.055181849747896194 0.15467491745948792
vt 0.055181849747896194 0.077337458729743958
vt 0.072110958397388458 0.077337458729743958
vt 0.072110958397388458 0.15467491745948792
vt 0.072110958397388458 0.23201236128807068
vt 0.072110958397388458 0.30934983491897583
vt 0.072110958397388458 0.38668727874755859
vt 0.072110958397388458 0.46402472257614136
vt 0.016929106786847115 0
vt 0 0
vt 0.016929106786847115 0.5
vt 0 0.5
vt 0 0.4285714328289032
vt 0 0.3571428656578064
vt 0 0.28571429848670959
vt 0 0.2142857164144516
vt 0 0.1428571492433548
vt 0 0.071428574621677399
vt 0.016929106786847115 0.071428574621677399
vt 0.016929106786847115 0.1428571492433548
vt 0.016929106786847115 0.2142857164144516
vt 0.016929106786847115 0.28571429848670959
vt 0.016929106786847115 0.3571428656578064
vt 0.016929106786847115 0.4285714328289032
vt 0.053717005997896194 0
vt 0.036787901073694229 0
vt 0.053717005997896194 0.54136216640472412
vt 0.036787901073694229 0.54136216640472412
vt 0.036787901073694229 0.46402472257614136
vt 0.036787901073694229 0.38668727874755859
vt 0.036787901073694229 0.30934983491897583
vt 0.036787901073694229 0.23201236128807068
vt 0.036787901073694229 0.15467491745948792
vt 0.036787901073694229 0.077337458729743958
vt 0.053717005997896194 0.077337458729743958
vt 0.053717005997896194 0.15467491745948792
vt 0.053717005997896194 0.23201236128807068
vt 0.053717005997896194 0.30934983491897583
vt 0.053717005997896194 0.38668727874755859
vt 0.053717005997896194 0.46402472257614136
vn 0 0 -1
vn 0 0 -1
vn 0 0 -1
vn 0 0 -1
vn 0 0 -1
vn 0 0 -1
vn 0 0 -1
vn 0 0 -1
vn 0 0 -1
vn 0 0 -1
vn 0 0 -1
vn 0 0 -1
vn 0 0 -1
vn 0 0 -1
vn 0 0 -1
vn 0 0 -1
vn 0 0 -1
vn 0 0 -1
vn 0 0 -1
vn 0 0 -1
vn 0 0 -1
vn 0 0 -1
vn 0 0 -1
vn 0 0 -1
vn 0 0 -1
vn 0 0 -1
vn 0 0 -1
vn 0 0 -1
vn 0 0 -1
vn 0 0 -1
vn 0 0 -1
vn 0 0 -1
vn 0 0 -1
vn 0 0 -1
vn 0 0 -1
vn 0 0 -1
vn 0 0 -1
vn 0 0 1
vn 0 0 1
vn 0 0 1
vn 0 0 1
vn 0 0 1
vn 0 0 1
vn 0 0 1
vn 0 0 1
vn 0 0 1
vn 0 0 1
vn 0 0 1
vn 0 0 1
vn 0 0 1
vn 0 0 1
vn 0 0 1
vn 0 0 1
vn 0 0 1
vn 0 0 1
vn 0 0 1
vn 0 0 1
vn 0 0 1
vn 0 0 1
vn 0 0 1
vn 0 0 1
vn 0 0 1
vn 0 0 1
vn 0 0 1
vn 0 0 1
vn 0 0 1
vn 0 0 1
vn 0 0 1
vn 0 0 1
vn 0 0 1
vn 0 0 1
vn 0 0 1
vn 0 0 1
vn 0 0 1
vn 0 -1 0
vn 0 -1 0
vn 0 -1 0
vn 0 -1 0
vn 0 -1 0
vn 0 -1 0
vn 0 -1 0
vn 0 -1 0
vn 0 -1 0
vn 0 -1 0
vn 0 -1 0
vn 0 -1 0
vn 0 -1 0
vn 0 -1 0
vn 0 -1 0
vn 0 -1 0
vn 1 0 0
vn 1 0 0
vn 1 0 0
vn 1 0 0
vn 1 0 0
vn 1 0 0
vn 1 0 0
vn 1 0 0
vn 1 0 0
vn 1 0 0
vn 1 0 0
vn 1 0 0
vn 1 0 0
vn 1 0 0
vn 1 0 0
vn 1 0 0
vn 0 1 0
vn 0 1 0
vn 0 1 0
vn 0 1 0
vn 0 1 0
vn 0 1 0
vn 0 1 0
vn 0 1 0
vn 0 1 0
vn 0 1 0
vn 0 1 0
vn 0 1 0
vn 0 1 0
vn 0 1 0
vn 0 1 0
vn 0 1 0
vn -1 0 0
vn -1 0 0
vn -1 0 0
vn -1 0 0
vn -1 0 0
vn -1 0 0
vn -1 0 0
vn -1 0 0
vn -1 0 0
vn -1 0 0
vn -1 0 0
vn -1 0 0
vn -1 0 0
vn -1 0 0
vn -1 0 0
vn -1 0 0
f 31/31/31 15/15/15 11/11/11 23/23/23
f 23/23/23 11/11/11 13/13/13 24/24/24
f 11/11/11 12/12/12 14/14/14 13/13/13
f 15/15/15 16/16/16 12/12/12 11/11/11
f 5/5/5 1/1/1 22/22/22
f 20/20/20 13/13/13 14/14/14 21/21/21
f 21/21/21 14/14/14 22/22/22
f 14/14/14 6/6/6 5/5/5
f 12/12/12 7/7/7 6/6/6 14/14/14
f 8/8/8 7/7/7 12/12/12
f 22/22/22 14/14/14 5/5/5
f 18/18/18 24/24/24 13/13/13 19/19/19
f 30/30/30 17/17/17 2/2/2
f 17/17/17 24/24/24 18/18/18
f 17/17/17 30/30/30 24/24/24
f 24/24/24 30/30/30 29/29/29
f 24/24/24 29/29/29 28/28/28
f 28/28/28 23/23/23 24/24/24
f 13/13/13 20/20/20 19/19/19
f 16/16/16 9/9/9 8/8/8
f 15/15/15 34/34/34 33/33/33 16/16/16
f 16/16/16 10/10/10 9/9/9
f 32/32/32 3/3/3 10/10/10
f 32/32/32 16/16/16 33/33/33
f 32/32/32 10/10/10 16/16/16
f 35/35/35 34/34/34 15/15/15
f 23/23/23 27/27/27 26/26/26 31/31/31
f 26/26/26 25/25/25 31/31/31
f 28/28/28 27/27/27 23/23/23
f 36/36/36 31/31/31 37/37/37
f 4/4/4 37/37/37 25/25/25
f 37/37/37 31/31/31 25/25/25
f 35/35/35 31/31/31 36/36/36
f 31/31/31 35/35/35 15/15/15
f 8/8/8 12/12/12 16/16/16
f 68/68/68 60/60/60 48/48/48 52/52/52
f 60/60/60 61/61/61 50/50/50 48/48/48
f 48/48/48 50/50/50 51/51/51 49/49/49
f 52/52/52 48/48/48 49/49/49 53/53/53
f 42/42/42 59/59/59 38/38/38
f 57/57/57 58/58/58 51/51/51 50/50/50
f 58/58/58 59/59/59 51/51/51
f 51/51/51 42/42/42 43/43/43
f 49/49/49 51/51/51 43/43/43 44/44/44
f 45/45/45 49/49/49 44/44/44
f 59/59/59 42/42/42 51/51/51
f 55/55/55 56/56/56 50/50/50 61/61/61
f 67/67/67 39/39/39 54/54/54
f 54/54/54 55/55/55 61/61/61
f 54/54/54 61/61/61 67/67/67
f 61/61/61 66/66/66 67/67/67
f 61/61/61 65/65/65 66/66/66
f 65/65/65 61/61/61 60/60/60
f 50/50/50 56/56/56 57/57/57
f 45/45/45 46/46/46 53/53/53 49/49/49
f 52/52/52 53/53/53 70/70/70 71/71/71
f 53/53/53 46/46/46 47/47/47
f 69/69/69 47/47/47 40/40/40
f 69/69/69 70/70/70 53/53/53
f 69/69/69 53/53/53 47/47/47
f 72/72/72 52/52/52 71/71/71
f 60/60/60 68/68/68 63/63/63 64/64/64
f 63/63/63 68/68/68 62/62/62
f 65/65/65 60/60/60 64/64/64
f 73/73/73 74/74/74 68/68/68
f 41/41/41 62/62/62 74/74/74
f 74/74/74 62/62/62 68/68/68
f 72/72/72 73/73/73 68/68/68 52/52/52
f 85/85/85 84/84/84 76/76/76 75/75/75
f 86/86/86 87/87/87 82/82/82 83/83/83
f 85/85/85 86/86/86 83/83/83 84/84/84
f 87/87/87 88/88/88 81/81/81 82/82/82
f 88/88/88 89/89/89 80/80/80 81/81/81
f 90/90/90 77/77/77 78/78/78 79/79/79
f 89/89/89 90/90/90 79/79/79 80/80/80
f 91/91/91 101/101/101 100/100/100 92/92/92
f 102/102/102 103/103/103 98/98/98 99/99/99
f 101/101/101 102/102/102 99/99/99 100/100/100
f 103/103/103 104/104/104 97/97/97 98/98/98
f 104/104/104 105/105/105 96/96/96 97/97/97
f 106/106/106 93/93/93 94/94/94 95/95/95
f 105/105/105 106/106/106 95/95/95 96/96/96
f 107/107/107 117/117/117 116/116/116 108/108/108
f 118/118/118 119/119/119 114/114/114 115/115/115
f 117/117/117 118/118/118 115/115/115 116/116/116
f 113/113/113 114/114/114 119/119/119 120/120/120
f 121/121/121 112/112/112 113/113/113 120/120/120
f 122/122/122 109/109/109 110/110/110 111/111/111
f 121/121/121 122/122/122 111/111/111 112/112/112
f 123/123/123 133/133/133 132/132/132 124/124/124
f 134/134/134 135/135/135 130/130/130 131/131/131
f 133/133/133 134/134/134 131/131/131 132/132/132
f 135/135/135 136/136/136 129/129/129 130/130/130
f 137/137/137 128/128/128 129/129/129 136/136/136
f 138/138/138 125/125/125 126/126/126 127/127/127
f 137/137/137 138/138/138 127/127/127 128/128/128
