# Rhino

o support_pick_table
v 201 -649.5 -3
v 201 -376.5 -3
v 1144.9322509765625 -649.5 -3
v 1144.9322509765625 -376.5 -3
v 305.88134765625 -649.5 -3
v 410.76272583007812 -649.5 -3
v 515.64404296875 -649.5 -3
v 620.52545166015625 -649.5 -3
v 725.40679931640625 -649.5 -3
v 830.28814697265625 -649.5 -3
v 935.16949462890625 -649.5 -3
v 1040.0509033203125 -649.5 -3
v 672.96612548828125 -513 -3
v 672.96612548828125 -581.25 -3
v 436.98306274414062 -513 -3
v 436.98306274414062 -581.25 -3
v 908.94915771484375 -513 -3
v 908.94915771484375 -581.25 -3
v 201 -467.5 -3
v 201 -558.5 -3
v 672.96612548828125 -444.75 -3
v 436.98306274414062 -444.75 -3
v 1040.0509033203125 -376.5 -3
v 935.16949462890625 -376.5 -3
v 830.28814697265625 -376.5 -3
v 725.40679931640625 -376.5 -3
v 620.52545166015625 -376.5 -3
v 515.64404296875 -376.5 -3
v 410.76272583007812 -376.5 -3
v 305.88134765625 -376.5 -3
v 908.94915771484375 -444.75 -3
v 1144.9322509765625 -558.5 -3
v 1144.9322509765625 -467.5 -3
v 201 -649.5 27
v 201 -376.5 27
v 1144.9322509765625 -649.5 27
v 1144.9322509765625 -376.5 27
v 305.88134765625 -649.5 27
v 410.76272583007812 -649.5 27
v 515.64404296875 -649.5 27
v 620.52545166015625 -649.5 27
v 725.40679931640625 -649.5 27
v 830.28814697265625 -649.5 27
v 935.16949462890625 -649.5 27
v 1040.0509033203125 -649.5 27
v 672.96612548828125 -513 27
v 672.96612548828125 -581.25 27
v 436.98306274414062 -513 27
v 436.98306274414062 -581.25 27
v 908.94915771484375 -513 27
v 908.94915771484375 -581.25 27
v 201 -467.5 27
v 201 -558.5 27
v 672.96612548828125 -444.75 27
v 436.98306274414062 -444.75 27
v 1040.0509033203125 -376.5 27
v 935.16949462890625 -376.5 27
v 830.28814697265625 -376.5 27
v 725.40679931640625 -376.5 27
v 620.52545166015625 -376.5 27
v 515.64404296875 -376.5 27
v 410.76272583007812 -376.5 27
v 305.88134765625 -376.5 27
v 908.94915771484375 -444.75 27
v 1144.9322509765625 -558.5 27
v 1144.9322509765625 -467.5 27
v 1144.9322509765625 -649.5 27
v 1144.9322509765625 -649.5 -3
v 201 -649.5 27
v 201 -649.5 -3
v 305.88134765625 -649.5 -3
v 410.76272583007812 -649.5 -3
v 515.64404296875 -649.5 -3
v 620.52545166015625 -649.5 -3
v 725.40679931640625 -649.5 -3
v 830.28814697265625 -649.5 -3
v 935.16949462890625 -649.5 -3
v 1040.0509033203125 -649.5 -3
v 1040.0509033203125 -649.5 27
v 935.16949462890625 -649.5 27
v 830.28814697265625 -649.5 27
v 725.40679931640625 -649.5 27
v 620.52545166015625 -649.5 27
v 515.64404296875 -649.5 27
v 410.76272583007812 -649.5 27
v 305.88134765625 -649.5 27
v 1144.9322509765625 -376.5 27
v 1144.9322509765625 -376.5 -3
v 1144.9322509765625 -649.5 27
v 1144.9322509765625 -649.5 -3
v 1144.9322509765625 -558.5 -3
v 1144.9322509765625 -467.5 -3
v 1144.9322509765625 -467.5 27
v 1144.9322509765625 -558.5 27
v 201 -376.5 27
v 201 -376.5 -3
v 515.64404296875 -376.5 27
v 515.64404296875 -376.5 -3
v 830.28814697265625 -376.5 27
v 1144.9322509765625 -376.5 27
v 1144.9322509765625 -376.5 -3
v 1040.0509033203125 -376.5 -3
v 935.16949462890625 -376.5 -3
v 830.28814697265625 -376.5 -3
v 725.40679931640625 -376.5 -3
v 620.52545166015625 -376.5 -3
v 410.76272583007812 -376.5 -3
v 305.88134765625 -376.5 -3
v 305.88134765625 -376.5 27
v 410.76272583007812 -376.5 27
v 620.52545166015625 -376.5 27
v 725.40679931640625 -376.5 27
v 935.16949462890625 -376.5 27
v 1040.0509033203125 -376.5 27
v 201 -649.5 27
v 201 -649.5 -3
v 201 -376.5 27
v 201 -376.5 -3
v 201 -467.5 -3
v 201 -558.5 -3
v 201 -558.5 27
v 201 -467.5 27
vt 0.059764992445707321 0.51666378974914551
vt 0.059764992445707321 0.78859448432922363
vt 0.99853515625 0.51666378974914551
vt 0.99853515625 0.78859448432922363
vt 0.16407278180122375 0.51666378974914551
vt 0.26838058233261108 0.51666378974914551
vt 0.37268838286399841 0.51666378974914551
vt 0.47699618339538574 0.51666378974914551
vt 0.58130401372909546 0.51666378974914551
vt 0.6856117844581604 0.51666378974914551
vt 0.78991955518722534 0.51666378974914551
vt 0.89422738552093506 0.51666378974914551
vt 0.52915006875991821 0.65262913703918457
vt 0.52915006875991821 0.58464646339416504
vt 0.29445752501487732 0.65262913703918457
vt 0.29445752501487732 0.58464646339416504
vt 0.76384264230728149 0.65262913703918457
vt 0.76384264230728149 0.58464646339416504
vt 0.059764992445707321 0.69795095920562744
vt 0.059764992445707321 0.60730737447738647
vt 0.52915006875991821 0.7206118106842041
vt 0.29445752501487732 0.7206118106842041
vt 0.89422738552093506 0.78859448432922363
vt 0.78991955518722534 0.78859448432922363
vt 0.6856117844581604 0.78859448432922363
vt 0.58130401372909546 0.78859448432922363
vt 0.47699618339538574 0.78859448432922363
vt 0.37268838286399841 0.78859448432922363
vt 0.26838058233261108 0.78859448432922363
vt 0.16407278180122375 0.78859448432922363
vt 0.76384264230728149 0.7206118106842041
vt 0.99853515625 0.60730737447738647
vt 0.99853515625 0.69795095920562744
vt 0.059764992445707321 0.093092575669288635
vt 0.059764992445707321 0.36502328515052795
vt 0.99853515625 0.093092575669288635
vt 0.99853515625 0.36502328515052795
vt 0.16407278180122375 0.093092575669288635
vt 0.26838058233261108 0.093092575669288635
vt 0.37268838286399841 0.093092575669288635
vt 0.47699618339538574 0.093092575669288635
vt 0.58130401372909546 0.093092575669288635
vt 0.6856117844581604 0.093092575669288635
vt 0.78991955518722534 0.093092575669288635
vt 0.89422738552093506 0.093092575669288635
vt 0.52915006875991821 0.22905793786048889
vt 0.52915006875991821 0.16107524931430817
vt 0.29445752501487732 0.22905793786048889
vt 0.29445752501487732 0.16107524931430817
vt 0.76384264230728149 0.22905793786048889
vt 0.76384264230728149 0.16107524931430817
vt 0.059764992445707321 0.27437973022460938
vt 0.059764992445707321 0.18373614549636841
vt 0.52915006875991821 0.29704061150550842
vt 0.29445752501487732 0.29704061150550842
vt 0.89422738552093506 0.36502328515052795
vt 0.78991955518722534 0.36502328515052795
vt 0.6856117844581604 0.36502328515052795
vt 0.58130401372909546 0.36502328515052795
vt 0.47699618339538574 0.36502328515052795
vt 0.37268838286399841 0.36502328515052795
vt 0.26838058233261108 0.36502328515052795
vt 0.16407278180122375 0.36502328515052795
vt 0.76384264230728149 0.29704061150550842
vt 0.99853515625 0.18373614549636841
vt 0.99853515625 0.27437973022460938
vt 0.058300148695707321 0
vt 0.029882496222853661 0
vt 0.058300148695707321 0.93877017498016357
vt 0.029882496222853661 0.93877017498016357
vt 0.029882496222853661 0.83446240425109863
vt 0.029882496222853661 0.73015457391738892
vt 0.029882496222853661 0.62584680318832397
vt 0.029882496222853661 0.52153903245925903
vt 0.029882496222853661 0.41723120212554932
vt 0.029882496222853661 0.31292340159416199
vt 0.029882496222853661 0.20861560106277466
vt 0.029882496222853661 0.10430780053138733
vt 0.058300148695707321 0.10430780053138733
vt 0.058300148695707321 0.20861560106277466
vt 0.058300148695707321 0.31292340159416199
vt 0.058300148695707321 0.41723120212554932
vt 0.058300148695707321 0.52153903245925903
vt 0.058300148695707321 0.62584680318832397
vt 0.058300148695707321 0.73015457391738892
vt 0.058300148695707321 0.83446240425109863
vt 0.059764992445707321 0.046546287834644318
vt 0.059764992445707321 0.076428785920143127
vt 0.33169570565223694 0.046546287834644318
vt 0.33169570565223694 0.076428785920143127
vt 0.24105213582515717 0.076428785920143127
vt 0.15040856599807739 0.076428785920143127
vt 0.15040856599807739 0.046546287834644318
vt 0.24105213582515717 0.046546287834644318
vt 0.028417652472853661 0
vt 0 0
vt 0.028417652472853661 0.31292340159416199
vt 0 0.31292340159416199
vt 0.028417652472853661 0.62584680318832397
vt 0.028417652472853661 0.93877017498016357
vt 0 0.93877017498016357
vt 0 0.83446240425109863
vt 0 0.73015457391738892
vt 0 0.62584680318832397
vt 0 0.52153903245925903
vt 0 0.41723120212554932
vt 0 0.20861560106277466
vt 0 0.10430780053138733
vt 0.028417652472853661 0.10430780053138733
vt 0.028417652472853661 0.20861560106277466
vt 0.028417652472853661 0.41723120212554932
vt 0.028417652472853661 0.52153903245925903
vt 0.028417652472853661 0.73015457391738892
vt 0.028417652472853661 0.83446240425109863
vt 0.059764992445707321 0
vt 0.059764992445707321 0.029882496222853661
vt 0.33169570565223694 0
vt 0.33169570565223694 0.029882496222853661
vt 0.24105213582515717 0.029882496222853661
vt 0.15040856599807739 0.029882496222853661
vt 0.15040856599807739 0
vt 0.24105213582515717 0
vn 0 0 -1
vn 0 0 -1
vn 0 0 -1
vn 0 0 -1
vn 0 0 -1
vn 0 0 -1
vn 0 0 -1
vn 0 0 -1
vn 0 0 -1
vn 0 0 -1
vn 0 0 -1
vn 0 0 -1
vn 0 0 -1
vn 0 0 -1
vn 0 0 -1
vn 0 0 -1
vn 0 0 -1
vn 0 0 -1
vn 0 0 -1
vn 0 0 -1
vn 0 0 -1
vn 0 0 -1
vn 0 0 -1
vn 0 0 -1
vn 0 0 -1
vn 0 0 -1
vn 0 0 -1
vn 0 0 -1
vn 0 0 -1
vn 0 0 -1
vn 0 0 -1
vn 0 0 -1
vn 0 0 -1
vn 0 0 1
vn 0 0 1
vn 0 0 1
vn 0 0 1
vn 0 0 1
vn 0 0 1
vn 0 0 1
vn 0 0 1
vn 0 0 1
vn 0 0 1
vn 0 0 1
vn 0 0 1
vn 0 0 1
vn 0 0 1
vn 0 0 1
vn 0 0 1
vn 0 0 1
vn 0 0 1
vn 0 0 1
vn 0 0 1
vn 0 0 1
vn 0 0 1
vn 0 0 1
vn 0 0 1
vn 0 0 1
vn 0 0 1
vn 0 0 1
vn 0 0 1
vn 0 0 1
vn 0 0 1
vn 0 0 1
vn 0 0 1
vn 0 0 1
vn 0 -1 0
vn 0 -1 0
vn 0 -1 0
vn 0 -1 0
vn 0 -1 0
vn 0 -1 0
vn 0 -1 0
vn 0 -1 0
vn 0 -1 0
vn 0 -1 0
vn 0 -1 0
vn 0 -1 0
vn 0 -1 0
vn 0 -1 0
vn 0 -1 0
vn 0 -1 0
vn 0 -1 0
vn 0 -1 0
vn 0 -1 0
vn 0 -1 0
vn 1 0 0
vn 1 0 0
vn 1 0 0
vn 1 0 0
vn 1 0 0
vn 1 0 0
vn 1 0 0
vn 1 0 0
vn 0 1 0
vn 0 1 0
vn 0 1 0
vn 0 1 0
vn 0 1 0
vn 0 1 0
vn 0 1 0
vn 0 1 0
vn 0 1 0
vn 0 1 0
vn 0 1 0
vn 0 1 0
vn 0 1 0
vn 0 1 0
vn 0 1 0
vn 0 1 0
vn 0 1 0
vn 0 1 0
vn 0 1 0
vn 0 1 0
vn -1 0 0
vn -1 0 0
vn -1 0 0
vn -1 0 0
vn -1 0 0
vn -1 0 0
vn -1 0 0
vn -1 0 0
f 31/31/31 17/17/17 13/13/13 21/21/21
f 21/21/21 13/13/13 15/15/15 22/22/22
f 13/13/13 14/14/14 16/16/16 15/15/15
f 17/17/17 18/18/18 14/14/14 13/13/13
f 20/20/20 5/5/5 1/1/1
f 6/6/6 5/5/5 16/16/16
f 20/20/20 16/16/16 5/5/5
f 14/14/14 8/8/8 7/7/7
f 15/15/15 16/16/16 20/20/20
f 7/7/7 16/16/16 14/14/14
f 14/14/14 9/9/9 8/8/8
f 6/6/6 16/16/16 7/7/7
f 30/30/30 19/19/19 2/2/2
f 30/30/30 29/29/29 22/22/22
f 22/22/22 19/19/19 30/30/30
f 19/19/19 22/22/22 15/15/15
f 28/28/28 27/27/27 21/21/21
f 21/21/21 22/22/22 28/28/28
f 29/29/29 28/28/28 22/22/22
f 15/15/15 20/20/20 19/19/19
f 18/18/18 10/10/10 9/9/9 14/14/14
f 32/32/32 18/18/18 17/17/17
f 18/18/18 11/11/11 10/10/10
f 18/18/18 32/32/32 12/12/12
f 12/12/12 32/32/32 3/3/3
f 11/11/11 18/18/18 12/12/12
f 32/32/32 17/17/17 31/31/31 33/33/33
f 21/21/21 26/26/26 25/25/25 31/31/31
f 25/25/25 24/24/24 31/31/31
f 27/27/27 26/26/26 21/21/21
f 24/24/24 23/23/23 31/31/31
f 33/33/33 31/31/31 23/23/23
f 33/33/33 23/23/23 4/4/4
f 64/64/64 54/54/54 46/46/46 50/50/50
f 54/54/54 55/55/55 48/48/48 46/46/46
f 46/46/46 48/48/48 49/49/49 47/47/47
f 50/50/50 46/46/46 47/47/47 51/51/51
f 53/53/53 34/34/34 38/38/38
f 39/39/39 49/49/49 38/38/38
f 53/53/53 38/38/38 49/49/49
f 47/47/47 40/40/40 41/41/41
f 48/48/48 53/53/53 49/49/49
f 40/40/40 47/47/47 49/49/49
f 47/47/47 41/41/41 42/42/42
f 39/39/39 40/40/40 49/49/49
f 63/63/63 35/35/35 52/52/52
f 63/63/63 55/55/55 62/62/62
f 55/55/55 63/63/63 52/52/52
f 52/52/52 48/48/48 55/55/55
f 61/61/61 54/54/54 60/60/60
f 54/54/54 61/61/61 55/55/55
f 62/62/62 55/55/55 61/61/61
f 48/48/48 52/52/52 53/53/53
f 51/51/51 47/47/47 42/42/42 43/43/43
f 65/65/65 50/50/50 51/51/51
f 51/51/51 43/43/43 44/44/44
f 51/51/51 45/45/45 65/65/65
f 45/45/45 36/36/36 65/65/65
f 44/44/44 45/45/45 51/51/51
f 66/66/66 50/50/50 65/65/65
f 54/54/54 64/64/64 58/58/58 59/59/59
f 58/58/58 64/64/64 57/57/57
f 60/60/60 54/54/54 59/59/59
f 57/57/57 64/64/64 56/56/56
f 66/66/66 56/56/56 64/64/64
f 66/66/66 37/37/37 56/56/56
f 64/64/64 50/50/50 66/66/66
f 67/67/67 79/79/79 78/78/78 68/68/68
f 80/80/80 81/81/81 76/76/76 77/77/77
f 81/81/81 82/82/82 75/75/75 76/76/76
f 79/79/79 80/80/80 77/77/77 78/78/78
f 82/82/82 83/83/83 74/74/74 75/75/75
f 83/83/83 84/84/84 73/73/73 74/74/74
f 85/85/85 86/86/86 71/71/71 72/72/72
f 86/86/86 69/69/69 70/70/70 71/71/71
f 84/84/84 85/85/85 72/72/72 73/73/73
f 87/87/87 93/93/93 92/92/92 88/88/88
f 91/91/91 92/92/92 93/93/93 94/94/94
f 94/94/94 89/89/89 90/90/90 91/91/91
f 109/109/109 108/108/108 96/96/96 95/95/95
f 97/97/97 98/98/98 107/107/107 110/110/110
f 111/111/111 106/106/106 98/98/98 97/97/97
f 110/110/110 107/107/107 108/108/108 109/109/109
f 105/105/105 106/106/106 111/111/111 112/112/112
f 112/112/112 99/99/99 104/104/104 105/105/105
f 113/113/113 114/114/114 102/102/102 103/103/103
f 114/114/114 100/100/100 101/101/101 102/102/102
f 99/99/99 113/113/113 103/103/103 104/104/104
f 121/121/121 120/120/120 116/116/116 115/115/115
f 119/119/119 120/120/120 121/121/121 122/122/122
f 122/122/122 117/117/117 118/118/118 119/119/119
